<svg xmlns="http://www.w3.org/2000/svg" viewBox="0 0 32 32" fill="none">
  <!-- Background -->
  <circle cx="16" cy="16" r="16" fill="#0f1419"/>
  <!-- Neck -->
  <path d="M12 23h8v4h-8z" fill="#b07840"/>
  <!-- T-shirt -->
  <path d="M5 32c0-5.5 4-9 11-9s11 3.5 11 9" fill="#1a1a1a"/>
  <!-- Head -->
  <ellipse cx="16" cy="15" rx="8.5" ry="9.5" fill="#c48a50"/>
  <!-- Ears -->
  <ellipse cx="7.8" cy="15.5" rx="1.5" ry="2" fill="#b07840"/>
  <ellipse cx="24.2" cy="15.5" rx="1.5" ry="2" fill="#b07840"/>
  <!-- Hair top -->
  <path d="M7.5 12c0-5.5 3.5-9 8.5-9s8.5 3.5 8.5 9c0 .8-.3 2-.7 2.8.3-3-1-7.5-7.8-7.5S8.2 11.5 8.2 14.8c-.4-.8-.7-2-.7-2.8z" fill="#1c1410"/>
  <path d="M9 9.5C10 5.5 12.5 3 16 3s6 2.5 7 6.5c-1-3.2-3.5-5-7-5S10 6.3 9 9.5z" fill="#0f0c09"/>
  <!-- Eyebrows -->
  <path d="M11 12.8c.4-.6 1.4-1 2.5-.8" stroke="#1a1008" stroke-width="1" stroke-linecap="round" fill="none"/>
  <path d="M21 12.8c-.4-.6-1.4-1-2.5-.8" stroke="#1a1008" stroke-width="1" stroke-linecap="round" fill="none"/>
  <!-- Eyes -->
  <ellipse cx="12.8" cy="14.8" rx="1.2" ry="1.1" fill="#1a1008"/>
  <ellipse cx="19.2" cy="14.8" rx="1.2" ry="1.1" fill="#1a1008"/>
  <circle cx="12.4" cy="14.4" r="0.4" fill="white" opacity="0.7"/>
  <circle cx="18.8" cy="14.4" r="0.4" fill="white" opacity="0.7"/>
  <!-- Glasses rimless - gold frame -->
  <rect x="9.5" y="12.8" width="6.5" height="4.2" rx="1" fill="none" stroke="#c9a96e" stroke-width="0.6"/>
  <rect x="16" y="12.8" width="6.5" height="4.2" rx="1" fill="none" stroke="#c9a96e" stroke-width="0.6"/>
  <!-- Blue lens tint -->
  <rect x="9.8" y="13.1" width="5.9" height="3.6" rx="0.8" fill="#4488ff" opacity="0.1"/>
  <rect x="16.3" y="13.1" width="5.9" height="3.6" rx="0.8" fill="#4488ff" opacity="0.1"/>
  <!-- Bridge -->
  <path d="M16 14.5h0" stroke="#c9a96e" stroke-width="0.6"/>
  <!-- Temple arms -->
  <path d="M9.5 13.5L7.8 13" stroke="#c9a96e" stroke-width="0.5"/>
  <path d="M22.5 13.5L24.2 13" stroke="#c9a96e" stroke-width="0.5"/>
  <!-- Nose -->
  <path d="M16 16v2c-.2.4-.7.6-.9.6" stroke="#a67838" stroke-width="0.5" stroke-linecap="round" fill="none"/>
  <!-- Mustache hint -->
  <path d="M13.5 19.5c.8-.3 1.6-.4 2.5-.4s1.7.1 2.5.4" stroke="#6b4820" stroke-width="0.4" opacity="0.5" fill="none"/>
  <!-- Mouth -->
  <path d="M14 20.5c.7.3 1.3.4 2 .4s1.3-.1 2-.4" stroke="#8b5a30" stroke-width="0.6" stroke-linecap="round" fill="none"/>
</svg>
